<mxfile host="app.diagrams.net" modified="2023-01-10T08:43:47.047Z" agent="5.0 (Windows NT 10.0; Win64; x64) AppleWebKit/537.36 (KHTML, like Gecko) Chrome/108.0.0.0 Safari/537.36" version="20.8.3" etag="eqeiJrF9qWlzsDUOKDZK" type="github">
  <diagram id="awbB_Kjzb3vMLX7f8Wmy" name="Page-1">
    <mxGraphModel dx="880" dy="427" grid="1" gridSize="10" guides="1" tooltips="1" connect="1" arrows="1" fold="1" page="1" pageScale="1" pageWidth="850" pageHeight="1100" math="0" shadow="0">
      <root>
        <mxCell id="0" />
        <mxCell id="1" parent="0" />
        <mxCell id="MfWSDH6TcIE8ZmdSL28M-1" value="" style="rounded=1;whiteSpace=wrap;html=1;" vertex="1" parent="1">
          <mxGeometry x="412" y="76" width="240" height="310" as="geometry" />
        </mxCell>
        <mxCell id="MfWSDH6TcIE8ZmdSL28M-2" value="Public Internet" style="ellipse;shape=cloud;whiteSpace=wrap;html=1;" vertex="1" parent="1">
          <mxGeometry x="720" y="243" width="120" height="80" as="geometry" />
        </mxCell>
        <mxCell id="MfWSDH6TcIE8ZmdSL28M-4" value="UPF" style="rounded=0;whiteSpace=wrap;html=1;" vertex="1" parent="1">
          <mxGeometry x="430" y="260" width="210" height="90" as="geometry" />
        </mxCell>
        <mxCell id="MfWSDH6TcIE8ZmdSL28M-5" value="AMF" style="rounded=0;whiteSpace=wrap;html=1;" vertex="1" parent="1">
          <mxGeometry x="429" y="120" width="60" height="80" as="geometry" />
        </mxCell>
        <mxCell id="MfWSDH6TcIE8ZmdSL28M-6" value="NRF" style="rounded=0;whiteSpace=wrap;html=1;" vertex="1" parent="1">
          <mxGeometry x="500" y="90" width="60" height="30" as="geometry" />
        </mxCell>
        <mxCell id="MfWSDH6TcIE8ZmdSL28M-7" value="NSSF" style="rounded=0;whiteSpace=wrap;html=1;" vertex="1" parent="1">
          <mxGeometry x="570" y="90" width="60" height="30" as="geometry" />
        </mxCell>
        <mxCell id="MfWSDH6TcIE8ZmdSL28M-8" value="SMF" style="rounded=0;whiteSpace=wrap;html=1;" vertex="1" parent="1">
          <mxGeometry x="500" y="130" width="60" height="30" as="geometry" />
        </mxCell>
        <mxCell id="MfWSDH6TcIE8ZmdSL28M-9" value="UDM" style="rounded=0;whiteSpace=wrap;html=1;" vertex="1" parent="1">
          <mxGeometry x="570" y="130" width="60" height="30" as="geometry" />
        </mxCell>
        <mxCell id="MfWSDH6TcIE8ZmdSL28M-10" value="UDR" style="rounded=0;whiteSpace=wrap;html=1;" vertex="1" parent="1">
          <mxGeometry x="500" y="170" width="60" height="30" as="geometry" />
        </mxCell>
        <mxCell id="MfWSDH6TcIE8ZmdSL28M-11" value="PCF" style="rounded=0;whiteSpace=wrap;html=1;" vertex="1" parent="1">
          <mxGeometry x="570" y="170" width="60" height="30" as="geometry" />
        </mxCell>
        <mxCell id="MfWSDH6TcIE8ZmdSL28M-12" value="AUSF" style="rounded=0;whiteSpace=wrap;html=1;" vertex="1" parent="1">
          <mxGeometry x="500" y="210" width="60" height="30" as="geometry" />
        </mxCell>
        <mxCell id="MfWSDH6TcIE8ZmdSL28M-13" value="BSF" style="rounded=0;whiteSpace=wrap;html=1;" vertex="1" parent="1">
          <mxGeometry x="570" y="210" width="60" height="30" as="geometry" />
        </mxCell>
        <mxCell id="MfWSDH6TcIE8ZmdSL28M-15" value="" style="endArrow=none;html=1;rounded=0;entryX=0.108;entryY=0.588;entryDx=0;entryDy=0;entryPerimeter=0;" edge="1" parent="1" target="MfWSDH6TcIE8ZmdSL28M-2">
          <mxGeometry width="50" height="50" relative="1" as="geometry">
            <mxPoint x="650" y="290" as="sourcePoint" />
            <mxPoint x="700" y="240" as="targetPoint" />
          </mxGeometry>
        </mxCell>
        <mxCell id="MfWSDH6TcIE8ZmdSL28M-16" value="5G Core" style="text;html=1;strokeColor=none;fillColor=none;align=center;verticalAlign=middle;whiteSpace=wrap;rounded=0;" vertex="1" parent="1">
          <mxGeometry x="500" y="400" width="60" height="30" as="geometry" />
        </mxCell>
        <mxCell id="MfWSDH6TcIE8ZmdSL28M-17" value="" style="shape=image;verticalLabelPosition=bottom;labelBackgroundColor=default;verticalAlign=top;aspect=fixed;imageAspect=0;image=data:image/png,iVBORw0KGgoAAAANSUhEUgAAACsAAAA8CAYAAAD/jkPjAAAI40lEQVRoge1YW2hU1xr+1p69M2OMiSM4TqzVJhqs1Xi/RPPgrWoOPhRbLKQXq4JgFEUEkRbUB0mp1QfFgO+lD9UHW69pQa23oiSWQGKGtGZM1VhzEeIw1+zL+s7DOOtkcjWezjkI+WDDZl32+ta3/vX9a21BknhDoP2/CQwHI2QzhRGymcII2UxhhGymMEI2U1BkpZSQUoIkSKLtWRscx8nIoN3d3QCAcDisxk6N+0pkNU1Tjb/55huU/asM+/fvh5TyHycbCoWwbds2rF+/HmfPnn31juyF2tpa5ufnEwAnTZrEtra23k0GhJSSjuNQSqnKHMfp0+73339nVlYWAXDWrFn8888/Vf/BoJS1bRu2bePatWtoa2sDAMyfPx9erxckUVNTg2PHjuH+/fsDTlwI0WdJpZS4desWqqqq0PYs+d38/HwUFxdD13UEAgE0NjYOT1kpJTs6Ojh37lxqmkbDMHjhwgWSZDAY5Ny5cwmAS5YsYSQS6TPrjo4OhkKhtDLbtnn//n1OmzaNALhhwwZGIhFKKVlZWUnDMAiA5eXlw1NWCIHOzk788ccfkFKisLAQM2fOBADcvHkT9fX1EELApblgmiYAIJFI4Pbt29i4cSNWrFiBpUuXoqKiAi0tLUpVl8sFy7IAAJcvX0ZtbS2EEJg9ezby8vIAAHV1dYhGoxBCvHrM/nrtVzXbDz74gNFolFJK7tq1iwAohOCRI0eUAjU1NXznnXcIIO1ZsWIFnzx5QpK0LIuff/65qqusrCRJtre3c86cOQTAKVOmsKWlZVBV05QFgL+f/a3satKkScjOzoZlWQgEAgAAr9eL+fPnKwW+//57PHr0CEIICCGgaRpcLheuX7+udrmu6ygpKYGmJYd6+vQpAMDn8yllo9Eo2tvbhwzZNLKRcERZVVZWFoDkxkskEgCA0aNHIzc3V5U3NTX18cfUezAYVGU+nw9utxsA1LdIwu1JllmWhWg0Ojyykv/x1JR6PcmEQiFEIpFkR03D6NGjVdve8TZmzBj1Hg6H1YqlxBBCQECob3k8nrT6Icnm5+fD5XIBALq6ugAAbrcbfr8fQHK5Hj58qAb46KOPkJWVBZIwDENlQb/fj3Xr1qnv1tfXq005fvx4AEA8HkcoFAIAGIaBvLw8UHLwJNQzgO/du8fc3FwC4KJFi1RC+Pbbb9UG2bhxI7u7u1WfyspKTpkyRdUXFxfzhx9+UFb04MEDLly4kACo6zrPnTunxpo4cSIB8L333mNnZ6dKKgNB7710ubm5CIfDaGhoQHNzMyZMmICVK1ciLy8PoVAIDQ0NiMfj0HUdmqbhq6++wurVqxEMBqHrOoqLizFjxgw4jgMpJbq6ulT8Tp8+XdlhfX09Ojo6AABvvfVWWkilwq6PlaVYSykZj8e5e/duulwuAuCBAwcopaRpmqyqquL777/PkydPkiSPHz/Offv2sbGxsY8CN2/e5KeffsozZ84wkUjwyy+/5KpVq3j+/HlKKdnZ2ckPP/xQrcapU6fYk0fq6Q1F1rIskuSFCxfodrsJgEVFRezq6lKdo9EoyaRHrly5UnlkeXk5t2/fzs2bN7OsrIw+n48AuGXLFnZ3d9OyLMZiMcZiMZLknTt36PF4CIB+v59NTU19iA5KNoVIJMINGzYQAEtLS9nV1cV4PE7LtFSb8+fPq8H6e4QQFELQ5/MxGAwqIrZtqxRcVFREIQT37t1L27ZfjyxJPnz4kGfOnGF9fT0TiQRN00yrr6ioIABqmsZRo0alETUMg16vl7quEwCrqqrS+lqWRcuyePfuXf7444/s6Ojol2h/ZAU5+InXcRxlZyTR2tqKZcuWobW1Fbm5uTh8+DB0XVde6vP58PTpU3z99deQUqK0tBQXL15ETk4OgGQyIZMW5Xa7YZqmyny9MeAG6wnHcWiaJm3b7mMl3333HTVNU2HS3wmsubmZBQUFFEJwwoQJvHv3rqpL2ZNt2/2qOZiyep/pvISmaWlZTAgB0zRx6dIldZry+/24evVq0qYcCSPLgOM4cBwHkydPRktLC9rb21FdXY3FixenZbohT1j9gf0cIVMzdxwn7eQfCATo9/tVfOq6TrfbrZ6cnBy63W7quk7DMKjrOoUQnDdvHl+8eKFWaShFB1a2xwR7hm9/Cvz8889oa2uDy+WC1+vFmjVrMG7cOBiGAZfLhXg8DsMwYNs2mpubcevWLcRiMdTV1eG3335DWVnZ4DE5FH766ScGg0F2d3crFVOK9lTVsiyWlJQoVV0uFxctWsRTp06ptOw4Dv/66y8ePXqUM2bMSHOJTZs2DZlOhwJOnDjBQCCQVphahhRhkrx69SrHjBlDACwoKOC6devUki9YsIDHjx/ngQMH+O6771LXdebk5HD9+vX0er0EwOnTp7OpqUltrNci219h77ixbZv79u1TKm3ZsoWWZfHGjRvqtJ9yCABcu3YtGxsbGQ6HuXz5cgKgx+NRnvu6ZAf9I/NyMnjy5Al++eUXAMCoUaPw8ccf4/Hjx7hy5QpisRgAIC8vD9nZ2QCA1tZWVFdXIx6P47PPPoOmaUgkErhy5QrC4XDaYWVYGGwmqVA4ffq0Uu7tt9/mF198wXHjxhEAp06dyj179jAQCPDevXvcunWrqissLGR5eTnHjh1LAMzJyWFNTY1areFiSLKxWIyffPJJn9xfUFDAgwcPsqGhgSRVEpFSsra2lhUVFSpe8dLmAPDQoUMk+//58V+RJcm6ujp1SNY0jUVFRTx27Fi/t9GesWiaJhsaGrhjxw4WFhYyOzubQgguXbqUz58/79P+HyFbVVWl1CktLeWDBw/UQL1/FfWHRCLBO3fuqCu7x+PhpUuXXovsgOkWSN46nz17hmXLliE7Oxs7d+7EtGnTYFt2MnVqQ5u62+1GSUkJdu7cierqakgp8fjx4+FvLgCDnrqklOpSByR3fO9rx6tmIdM0EYlEQBK6rqt/Bv8Y2YHAge5IGcagYTAQ/tckU3gzf9O/CRghmymMkM0URshmCiNkM4URspnCCNlM4d+xcv8Z8HcjuwAAAABJRU5ErkJggg==;" vertex="1" parent="1">
          <mxGeometry x="210" y="179" width="122.54" height="171" as="geometry" />
        </mxCell>
        <mxCell id="MfWSDH6TcIE8ZmdSL28M-19" style="edgeStyle=orthogonalEdgeStyle;rounded=0;orthogonalLoop=1;jettySize=auto;html=1;" edge="1" parent="1">
          <mxGeometry relative="1" as="geometry">
            <mxPoint x="260" y="350" as="targetPoint" />
            <mxPoint x="260" y="335" as="sourcePoint" />
          </mxGeometry>
        </mxCell>
        <mxCell id="MfWSDH6TcIE8ZmdSL28M-18" value="5G RAN&lt;br&gt;(gNodeB)" style="text;html=1;strokeColor=none;fillColor=none;align=center;verticalAlign=middle;whiteSpace=wrap;rounded=0;" vertex="1" parent="1">
          <mxGeometry x="229.41000000000003" y="310" width="60" height="30" as="geometry" />
        </mxCell>
        <mxCell id="MfWSDH6TcIE8ZmdSL28M-21" value="" style="line;strokeWidth=2;html=1;" vertex="1" parent="1">
          <mxGeometry x="300" y="290" width="130" height="10" as="geometry" />
        </mxCell>
        <mxCell id="MfWSDH6TcIE8ZmdSL28M-23" value="" style="shape=partialRectangle;whiteSpace=wrap;html=1;bottom=0;right=0;fillColor=none;" vertex="1" parent="1">
          <mxGeometry x="270" y="150" width="160" height="60" as="geometry" />
        </mxCell>
        <mxCell id="MfWSDH6TcIE8ZmdSL28M-25" value="" style="shape=image;verticalLabelPosition=bottom;labelBackgroundColor=default;verticalAlign=top;aspect=fixed;imageAspect=0;image=data:image/png,iVBORw0KGgoAAAANSUhEUgAAALIAAAE4CAYAAAD/1qliAAAgAElEQVR4nO2da4xdZRnv/+u677eZtjPTdkrSFisSKkTqiYhCYwRz7DmJwW9WIxrlg4aQaIzJOXyRg4kJfhGJQgwaCXwA5RYlsYBCQwsSIgWEKSC1I6WdC3PdM3vtva7nQ31e3r269p41e/beM7P6/JKV2bMv6/pfz3re53ne91WCIAjAMJscdb13gGG6AQuZSQQsZCYRsJCZRMBCZhIBC5lJBCxkJhGwkJlEoPdrQ77vAwAo/6Kq0feQoiiR70flbWid8m9b/X61dLKejZBbCu+3vE++74tzRN8LgqDp9UrXZ6PScyH7vg9VVZtOTCcXPEpYYSFrmtb2Ql7shK+B7/sIggC63jd71jOUfqSo6YSFrQAtYUG2WkeYOFYjjmWNOgWb1SKHibqxPc9rOv9Rx9qtJ1u/6IuQaRNkBcKPMhI6vY6LpmmR21kt4fWsZV39FEDUuQrvt6qqkYJVFEV8RuvppmvWb9b0TJGtrPxe+H/XdWFZFmZmZjAxMYEzZ85gamoK1WoVvu/DsqwmQQOAaZpN66GTLm9D1/Wm7ck3jPxelCjDvmP4s6j3ViKu+LsllvA+yudPfk/TNBiGAV3XYZomSqUSBgYGsG3bNpRKJezZsweapiGTycA0TbF/iqKI9dFr+b1eHttqWZNFpgNzXVccoOxzzc3N4ejRo3jvvfdQrVaRzWaRTqeRzWaRy+VgGAYMw2gSbdj9CDc+ZGHShZMtuvwdeR2+7zc1OOXfyfseFkOrGwEAPM/r6Lz122rL5wM4f0yNRgOWZaHRaAiDoigKtm/fjr179+Kzn/0sSqUSTNNsErPneZFPMGJTCpkacrQK13VhGAbGx8fxt7/9DWfOnEE2m8XIyAiGh4dRKBSQyWSQSqWgaZoQl+d54q/neRcIULaQYasrX6SwoInwhZSFG3Vj0Hfk7cRpbMalnxc7fL5UVRVPMrmN4jgOqtUqJicnMT09jeXlZezZswcHDx7EZZddBs/zRKPddd2WYt6UQqaGA1ngarWKF198Ea+++ipKpRJ27NiBHTt2oFQqwTAM1Ot11Ot1LCwsYGZmBtVqVVgG3/fhuq4QM4m7lV9Nr5sORvLxwkKUkW++Vm5HlIC7EREh33S9UVUVpmnCMAyoqgrDMFAsFlEoFKDrOmq1Gt577z1MTk7iqquuwsGDB7F9+3a4rot0Ot10TWQ2pZDlR+ubb76Jxx57DIVCAR/72McwNDSE0dFRLC8v49y5cxgfH8fY2BhOnTqFyclJVKtVOI4D13WFsGTLGz4hUa6FYRgt90f+fnh97U522C+kpZtt4n67FuEIkeu60HUdmUwG2WwWe/bsQblcRjqdhmEYyGQyKBaLGBoawsTEBMbHx9FoNPCVr3wFBw4cANDcZlmvY2vablwh27YthGPbtvBrfd/H448/jn/+85/YsWMH9uzZg5GREZimiVOnTuHZZ5/F3//+d8zNzQkL6zhOkxg79TXpd+l0GkEQoF6vX9BCD7fIZQsfPunye3KISt6eoihNj+Z+QdvTdR22bV/Q0F3pdwSJudFoQNM0ZLNZ8ZRQVRWDg4P41Kc+hUKhAEVRRIPwrbfewszMDC6//HJ861vfEusltySVSjW5K/1mVRaZhKhpGmzbhu/7+MMf/oCxsTHs3LkTV155JQYGBjAxMYEjR47g2LFjmJmZgeM4ME0Ttm0jlUph586d2LdvH3bu3Ilisdi28dB25xUFb7/9Nh555JELbgZZuLK70ep1+L2wVabjJ0vkui48x+1ovztBVVU4joPdu3fjm9/85vkbEp09JYIggG3bOHPmDMbHx/Huu+9ibm6u6TqMjo7isssuw8DAAEqlEoaGhjA5OYnTp09j165dOHz4MCqVCgA0GQg53NdPYguZGma6rqPRaMAwDDz22GN48cUXcfXVV2Pfvn0wTRMvvfQSnnzySbz99tvixORyOezbtw+HDh3CNddcg23btjVZ9E7xfR/PPvussBDkq4eFGfV/VEKg3XsENVIbjQbseqPjfV8tdKNeddVVePTRR+E4DoyUucKvLoQERxbd931Uq1W89tpreOaZZ3Ds2DFMTExAVVWkUins3bsXn/jEJ5DP5zEwMIDl5WWcPHkSO3fuxM0334wtW7bAsizk83nhJgLtY9K9EHnsODIJpV6vQ9d1/OUvf8FLL72EK664ApdeeilqtRoeffRRPP3001hYWICiKNA0DZ/5zGfw4x//GJdccknT+ujC6LresWshW01d12NbYPm39FkUYVGHW/6OYne0351gGEZTCt513Y6FTJEhTdOgaRoqlQquu+46XHfddZiamsLx48fxs5/9DPPz83j77bcxPj6OgwcPol6vo1KpYPfu3Th37hzuu+8+fO9730O5XBauCrltrdyMXlnq2M1nTdPgui5SqRReeeUVPPXUU7jiiiuEQO+//378+c9/xuLiIgBgaGgIv//97/GLX/yiScSu64qbQtO0prDOahdd14XfXqvVLgjR0euoUFscosJz8g0Yte5eLcD5tomqqvA8D7lcru0TptWiaRpSqZS48Wm9dHxDQ0M4dOgQ/vSnP+HQoUNYXFxEo9HA0aNH8cEHH2BxcRGWZSGVSmFychI///nPRbSpXSRIPqe9ILaQyf8ZHx/Hk08+ib1792LLli1IpVL43e9+hzfeeAOe58FxHNx44414+OGHsX//fqRSqSbxmaYpXA46sZ1cEPJTNU0TN4V8okgAcdbTivBntB1qHGUyGXEjBkEAFYAW9GbRocD4b/ZN0VR4Srxja7XQ9VAURWTz6Bzquo6BgQHccccduOuuu+A4DhYXF3HixAmMj4+Lxn6lUsGHH36IBx54QDT6qO1Elj8qtt8LMa8qoOn7Pp544gnk83ns3r0bQ0NDeOKJJ3Ds2DFUq1UsLi7iG9/4Bu644w5s2bKlZ3cf4bouhoeH2wboe0k4udBLlpaWoCgKSqUSgN4WKJHYTdPEoUOHcPfdd6NYLGJqagrvvvsuZmdnhT+cyWRw9OhRvPnmm3AcB57nwbZt2LbdlOhay5MxDrGFrKoqnn/+eZw+fRqDg4PYsWMHnnvuObzwwguwLAuVSgWHDx/GbbfdJu5wx3G6urNhUqkUdu/ejU9+8pPrImRd16HrepNf2CsKhQIA4KabboKmaT09t7LYTNPE1VdfjR/96EcYHBzEmTNn8Oabb4r0tq7rKJVKeOCBB7C0tATbtrG0tCSCA3KSS86cdlvMsYVcr9dx5MgRjIyM4IorrhAhtmq1CsMwUC6X8YMf/ACpVAqmaYqQWy+hvP+dd96JTCbT8ydAGHJr+rFdx3Fw8OBBfP7znxdtlV5CjcG5uTnk83l8+ctfxre//W0YhoGJiQm8//77wtJ6nofZ2Vk888wzsCwLiqKgXq+j0WgIAdMSzsx269y1FLLneXBdVzSgjhw5As/zsGvXLgRBgD/+8Y+YnJyEoijIZrO45557UCgUhHgp9dlLSET79+/HD3/4Q4yMjDQ1HlslPmSiWtdh31p+X74oiqZC1TVohg4v8OEigKegK4sT+PBVBbbvwVcV/M///b/w4//7f6Dq5yvZXLe3MWw6fwMDA+LYDx8+jC996UsAzmdyq9UqPM+DYRhIp9M4duwYpqenRUVjo9EQ7kaUkIlW76+GyPAbXUiyeNVqFU899RRGRkawfft2jI2N4fXXXwcAWJaFW2+9FcPDw02NuH5AN4rv+7j55ptx7bXX4oUXXsD4+LgQc/jkUEMnaj3h74W/E3Vc8uOz25ZZURSkUil8+tOfxoEDB1Aul0XUR1N6ZyToOOl6UiNd13V85zvfwZEjR+C6Lt5//33s27cPtm1DURTMzc3h+PHjuPbaa1GpVJpuNrLw7cKha9FNyzgyXXBFUfDee+/B933s3bsXiqLg+PHjUBQF1WoVV111FQ4fPnxB3UM/oPJRVVVh2zZ2796NvXv3no/xrsK1CZ/AVoIMfy9s8bspZEq3U+rX8zzU6/WmeuF+4zgOLr30Uhw+fBgPPvggzp49i+3bt4tSXF3Xcfz4cezfvx/pdLopTGgYhmhH0Hnr5hO77ZpIIMePH8eWLVswNDSEsbExvPXWW6jVashms6LxAawtS9cJskVOp9NNN18qlWqZaFkp/BYVrpLLTGnplaAocyjfiLqui1BmrxvRrTBNE67r4vvf/z6y2Sw8z8MHH3wgbi5VVVGr1TAzM4P5+fmmmuewixHVCWAttBQyxY0XFxfx6quvisqoN954Q6Q4K5UKbrjhBjiOI5z8fkIngjJK9FSgeHarmLF8Mlst4VCRqqoiE0YLfSYX7XcDRVFQLBabrBcdK/mk/TYaciLIMAx84QtfQBAEmJ6eFrUb6XQamqbhlVdewcTEBCzLEkuj0YBt23AcJ7LYf620FDJZ4zNnzsD3fYyOjmJhYQGnT58WftqNN94oehHImaJ+QYKSA/wUEqOUbhj5u+2WOImTOL9ZS7IifHyUtJCTF/2CnkBUf/61r30NqVQKtm1jamoKhUJBPClOnDgBx3EwPz8Py7JEBCNsmaltEXbPOhF3W9dCURRMTk4inU5j+/btOHv2LCYmJqBpGhqNBq6//noAENaw31aC6R9y1g8APv7xj2N0dBRBEGB2drZJ6I1GA3Nzc6jVasIi1+v1CxIl8hNtrdY5Ush0h2iahsnJSeTzeRiGgVOnTokddhwHe/bsafIV16sRwvQeqosBIOrJr7zySiFk27abohKzs7NYXl7G8vJyk5/suq74K2f81uozt7TIFA5ZXFwUO0jW2LIs7NixA5VKpcmlYCEnF9kFME0Tqqri8ssvh6qqQqSkGU3TsLi4GClkWihHEbbInYo5UsjyCikMtLS0hNnZWbHhAwcOCD+O4oX9zqwx/YMavGRJqd1EyBEJXddhWRZqtZrop0mNPdd1m9YRp8NwHIG3jSMDQKPRQCaTwfz8vIgE6LqOyy+/XEQJep2KZtYf8o3l4bUoCUaFQuRHUw8iCr9lMhk0Gg0RB6cEiyzkdo3qOLT1kYMggGVZSKfTqFarwlFXVRV79uzpaINMcsjn86LPX71ebwoVUqiNLHK4sRdlkdfiXrT1kQGIwDztIL0/ODjY4eEzSYGGE5A7SFDySA63kU8sL+GKuLUWErUtGqLeCNSgkwtyMplM52eASQRyhwZyOwkSMFnmsIBlP5noetSCCjzq9bq4y2zbFhuiHWMubiiaRQ1B4KNoF/UUocQHWehwUiQIgguKrsK13XF851hVGxxWY1ZLlN8b5Q9HvdcJbYUs1xkwTFxkUYaHQAsXXvW8sUc7BLBFZuIRrpmIU5wV5SOzkJm+EtaHLMAoKxuuFoxKT/fEtQA236QoTP8g0cndykiYQPP8Ma06L9Bv5JuhE82xSpmuIXcto5JaoHW6uS/1yAyzWsgC67qO2dlZzM/Pt3Uxulmbw0Jmugq5BgsLCzh16lRLwXZbzG0HMexFp0omOZBoHccRA9VQNg+A6Na0EuHGHln21bCqbytB88IwwIVd+aMM31oq2+LArgWTCFjITCJgITOJYMXMnpwf7/agGkyyCHfp72dGmC0ykwhYyEwiYCEziSC2kD3Pg48AgQLxl2Fkup12Xg2Rmb2oSiUeDotZDb1OgIRh14JJBCxkJhGwkJlE0HIOEfm1PGoiwd2fGCI8gDoNiyVXsfU6mcYWmekaNC4gZYGz2Wzfth17UnWGWQnZ4g4ODjbNQd5r2CIzXYM6knqeh0KhIGZr7QexhNyrflZM8qDhsgCIv0Qv9ROr+i089gB9xjBA88Aq1PCj2aeA5mGKe5VYY9eC6RqGYYjRW8+ePYv//Oc/TZ/3MtvHQma6Bj21adaviYmJpic5C5nZFJDb4DgODMOIHBp2XYQsT19LkwHS7D5cRMTQ7K+6rjfNC95q6uRewhaZSQQsZCYRsJCZRLDizKfyX4ZpxXrro61FrtVqwqGXJ7+hsXCZi5t2w8RuiB4iiqLgtddew6233oqFhQURsWCYjUrL6cl+/etf41//+lfTjO8Ms1Fp6VpYlgVFUWBZFseMmQ1PSyGTb0yFH+FUI8NQDxCaEbeTOfP6MvUCzQkhC5dFzIRZ7ThvvdAQx5GZRMBCZhIBC5lJBLGETL1ieXxkRoYaeNRzmv7P5XLQNA3btm2LHA6gF8NKsEVmugZFMSzLwsjICPeiZjYn1DskCAKYptnX/AMLmekaQRCI3iHkavSL2FuSg90ME4asMfBRL6J1LxqKgocDYMJEjaNNA7RQw69fsGvBJAIWMpMIWMhMImjb1YmGOBL+sR9AhQIlAFRw8dDFjqwReq2qKlRVheu6GzNqwTAbGRYykwhYyEwiWNWI9YHy3+W/rxlmo8AWmUkELGQmEbCQmUTAQmYSQezGXngoAC4aYuQKNzl5ttqeRPLYgtRzf7WwRWYSAQuZSQQsZCYRrDjPnvyXYXpBN/QVKWTP85BKpZDJZGAYBmq12po3xDDtoEZjp2NvRwpZ0zTcdNNNQsS5XG5te8kwPSYy/BYEAb74xS9i27ZtuPfee3ngQmbDE2mRVVXF/Pw8du/eDVVV2bVgNjwtG3ulUgm6rkNRFKTT6X7uE7NJaDcWcqeJjU5pKeR+dlNhmLXCamUSAQuZSQQsZCYRrJjZ4/HemM0AW2QmEbCQmUTAQmYSQcsUtfw3/Brg+faYC5HbVBtyfORw9yYWMbPRYNeCSQQsZCYRsJCZRLCqOUTkyf+4qIjZSLAamUTAQmYSAQuZSQSxhEwBbjmOzIVEDNCsDbnArN/FZm2FLGdnWMhMmFYTRq5HxSS7FkwiYCEziYCFzCSCFYXMPUSYzQBbZCYRsJCZRMBCZhIBC5lZExulDcVCZtaE53mwbRue563rfrCQmUTAQmYSAQuZSQQsZKZjqKeQYRhiPGS5sGzDDQfAMBsdFjKTCFjITCJgITOJIHZXpyAIoGkaAB4OgPkIatStd3YvdhmnPP5bEATwfb/nO8cwcWk5GicJV1VVqKoKRVHEa3qfYTYKkUKW43++74t8uuM4whLziJzMRiJSyITv+5iYmICiKJiamhJC1jSNXQsGiqLAcRzYto1arQZFUVCr1WDbNgAIjbQbZ5vWQy5rp0/6thaZpu9tNBpYXl4WvnG/Z7VkNi6u68JxHFiWhSAIYNs2XNe9YCzt8BjbMvLTvdMnPTu6zJoJggCe54llPZ7WLGSmK1AwoN81FkRbH5lhVoIErOs6NE2Druvr4na2nQzH930MDw+jVCrB932Mj49DURToOuufOU86nUY2m0W5XEa5XMbi4iIsyxICD48bGNWY831fWPJOk21t48iapiGfz2NgYACu6yKbzYoWKcNsJCKlL7c06S7xPA+O48B1Xfi+z1ELZkPR1obLHQrDGT52L5iNxIrDygLnBS0HrX3f54QI08R6Z3pjCVl2vskSr/eOM+vPes50GobjyEwiYCEziYCFzCSCtkLmInqmHaqqwvd9URVJka31mEeELTKTCFjITCJgITOJgIXMrImNkk+IPRwAw0ShaRpSqZQYKmK9YIvMJAIWMpMIWMhMImAhM4mAhcwkAhYykwhYyEwiYCEziSBWDxGufmOikLv6cw8RhukCLGQmEbCQmUQQq4cIvabBWjbCnBHM5mGl8ZHjfLYSsecQAZpHIGIhM3FY7fjIUf/HgV0LJhGwkJlEwEJmEkHL0TjlQDf7w0wcoia1iTM+crgN1one2CIziYCFzCQCFjKTCFYUMvvITFxkX7ffmolV/cYwcVlLg20tsGvBJAIWMpMIWMhMIuAhs5iuEZUQ6RdskZlEwEJmEgELmUkEbSdVl1+zn8z0i64XDdFkJzTBCbB+AW9m40FVkvLS6XraVcfFgV0LJhGwkJlEwEJmEgEnRJiu0onPTL1IgM6HZ4uMWnDVG7Oe8HAAzEULC5lJBCxkJhFECpkqmOTkRzgRwn40Ex5OTVXVjhJm3dAWW2QmEbCQmUTAQmYSQVshU3CafCHZ72Efmekm8jwknSRFWo79Ft4IZ/eYftCpgWTXgkkELGQmEbCQmUTQUshyEoT+l197ntfbPWM2PN3qIdIN2CIziYCFzCQCFjKTCLiHCNMx8lARck/7TtcTfr0aWgqZM3fMStAsuJ7nrXmst6hKy9XArgWTCFjITCJgITOJgCfDYTpG0zT4vg9d14WfLPu6/dQNW2QmEbCQmUTAQmYSQduioajXDEOEddFKJ/3Q0opdnbh3CNMKGjvbdV1omhb5HWr89XpcbXYtmETAQmYSAQuZSQQrziECdD5mLcOEJ1PqVTEaV78xPUfWUt+FzDCbCRYykwhYyEwiaDk+MtGqmol9aCZc/cbDATDMGmEhM4mAhcwkgrZCDgezGSZM1JBZUcMSR72O+k6nPZLaThjJQmbiEiXmKHFHaakbCRN2LZhEwEJmEgELmUkEK04YSc53eNLItQ6RxFwckG7IN47SjawtGoZrtbAamUTAQmYSAQuZSQQsZKZjZP+30/hvt3IUbRMive7CzWxuaDiA1Y6P3IsqObbITCJgITOJgIXMJIJIH5l9YiYO4TZUOIHWil70NFrRIvPYb8xmYMUyziAIeIAWZsMTKWQZtsbMZqCtjyy7FSxoZiVkf7eVSxp3TOXV0tYi02yW5F70Y+gjZnOiqip0XRcNPnJHKVGiqqp43QvttBUyN/SYOGwEo8Y+MtMxcp26PDXZerBiL2qOWjCbgbZCTqVSQsyu68LzvH7tF7NJCLufmqY19Z6OM9SanETptOdR218pigJN0z7K3ATNC8OECXeLk2k19kU3XJJIIctjEui6zn4yExsSsmyZoxagWdhrpaVFdl0XiqLAMAwWMhMbmtJODrWttHSDlkKmuLHsWjDMSoR74Lei2xGOlsMBGIYB3/dRLpdRr9ebegPQ5IAUzeB488WJrutwXRe1Wg2GYUDTNHieh+XlZaEf2c2QBU4hu3DYrtMoWUsfmR4PxWJR7IznedB1Hb7vY2FhAQBEJGMjBMWZ/uI4DpaWllAoFACcN2yu60LXdSFeEiqJVhZvN92NlhbZ8zz4vo9t27Y1iZVE/o9//EO4HvQbtsoXF9PT02g0Gk1tKdd1YZpmk5A1TRML/S9b4p4JGTj/2ACAkZERMd+wYRiio+HTTz8N27YBfPQ4YKt8cfH6668DOG+Z0+k0fN+H53nCzQhb4rCF7ktjj6zrzp070Wg0UK/Xkc/nAZx/hJw6dQozMzNwXRcAxF8mmbiu23StbdvGiRMnhAFTVRWNRgO+78M0TfG0JusbZZm7GYZrO2GkoigYHh7Grl27YNu2cO6DIBAHQt8zTZNdiwRDbaNGowFN0+A4Dp577jmYpolisQhVVbG4uAjf95HP50U1XHiRRRzlL3dK21mdaKeuv/56eJ6HQqGATCYDz/PgeR7uv/9+cZfW63V2LRIMRbI8z4NlWXj44YcxPT0NABgeHkYQBKjVagiCAIVCQSTTwpZY0zQh6nDUous+cnjFBw4cEI58sVgUobjXX38dTz31FBqNhqjLYJIJ1dqYpgnDMPDQQw8BOK+RSy65BB9++CEsy0I2mxU+Mok2LOKwi0HrWQsthUyOu+d5GB0dxf79++E4DnK5nBCtoii49957YVnWmoZNYjY+ZFmDIMBPfvITTExMAAC2b9+ORqOBxcVFBEGAUqkEVVVhmiZSqdQFC0U0VgrDrXr/Wn2gaRoMwxCPgVtuuQXZfA5GykSukIePAJqi4tS/3sOdd/w/NKw6Go2GiGBQCI/ZfNA1pLgwPWk9z8Nf//pXPP7441BVFblcDqOjozh79ixc10U2m0U2m0U6nUYqlYJhGEilUtB1HYZhwDAM4TvLtRj0vkycblMysWvmhoeHceDAAdTrdWzZsgWpVEo8Kh577DH85je/ETNhRlU4MZsHaogBH4VhPc/DiRMn8NOf/hSNRgMAsGvXLriui9nZWSiK0iTidDqNTCaDTCYj3iO3JBzN6FljL4pUKoWvf/3rGBwchOd5GB4eFndssVjE3XffjUceeQS2bcP3fTiOw0LexMjRKdd1MT4+jttvvx2Tk5Mol8sYGRlBpVLBuXPnYBgGAKBUKiGdTjeJmBZZyPKTnhJqaw3FxRay7/sYGRnBV7/6VeRyOei6jq1btyKdTqNWq0HXddxxxx247777UKvVYJomHMdZ9Q4x6w+VJziOA9M08fLLL+O73/0uTp8+jUKhgOXlZYyOjmJmZgbVahUAMDAwgHQ6jWw2i3w+j3w+j0KhgGw2K6xyWMhkmbsRT247h4i8KIoCz/Nwww03YN++fXAcB5lcFoVSET4CpLMZuK6Le+65B7fffjvOnTsnapnlQhC5IET2v5j+IbdjADS9JlzXheM4ePDBB3Hbbbdhfn5euBzXXHMNlpaWMD09LYRXqVRgmiay2SxyuRzy+TxyuZyw0GSR2zX21oISRCip1XgEQRDAcRzMzs7izjvvxDvvvINisYizZ89ifn4epmnCrjfE3fyrX/0KB/7Hp0VGkE6a7IP1mvCxsLvTDJUc0HnxPA+O4+DcB2dx11134dlnn0U6nYbVqGPbtm245JJLAKCpgbdlyxZUKhXkcjkMDAxg69atKJVKqFQqQtC5XA6ZTEb4yHJyRHYvOm1fxRYyFdoD58U4MzOD22+/Hf/+97+Ry+WwsLCAqakpGJouKqCWlpbw8U9chltuuQWHDh0SYT0aL4Nnhlo/KKJE14DciHfeeQe//OUvcfyFY6KyzfM8lAcqGBoagu/7mJqagud5yGQyQrSFQgHlchkDAwMYHBxEsVhEuVwWrobsWgBo8o+74V7EFjIA2LYtCoiCIMCJEyfw29/+FqdOnUI2m0W9XsfUxKSwuo7jwEeATCaDwcFBXHPNNfjc5z6Hyy67DENDQxc4+r2ALXIzck2w67pYWlrCW2+9hRMnTuDo0aN49913z+cFPF9YzoGBAewY3YlqtYrZ2U+hcHsAAAYDSURBVFmR8d22bRuKxSIymQwqlQoGBgZQLpeFdS6VSsISUxhOzvbJg7cAa/ORYwuZHkHUgGs0GnAcBydPnsR9992HDz/88LzfnEpjamoKS0tL59elAMvLy0ilUiKdnc1mMTIygq1btyKXywlB94Ioq3+xixkAarUapqenMT09jeXlZRFSU1UVvu8jl8kilUph69atKBaLmPpwGvV6HUEQoFKpCLchn8+jVCphYGAApVIJ5XIZpVIJ2WwWxWIRpmkik8kICyynpsNP5rVcl0ghE+Fx36iRQOlKqoqbmJjAQw89hJMnT8KyLKiqinQ6jZmZGdRqNZEokXdYbkhGuhh+aLd8f8We290sCwyvJ2q9cRqqTsROX7Du0FeCiENQFOXC78V42rT6TtP51zVhqSmisHPnTqiqinq9jlqtJqofSbDkMhSLRVQqFSFgOVpBSzhCEeUTr3SOVmJNQrYsS9QkT0xM4Pnnn8fLL7+M999/H9lsVpTzVatVLC8vo1arifiyvKNROx110VbyqHtpaTsVshdjl1Q0fylKyEEQdG0IBjIedB1s10E2m0W5XEa5XEY6ncbi4iJs2xblB7LFzefzyGQyQsilUkmImCIWciKELHFUGnpDCNl1XViWhUajgVqthuXlZYyPj+P48eN47bXXsLS0JHyjVCoF3/dh27bofUJ/oyxy+OL2m66FBdULLXv4eKOEHOfmXo0Flj8PgqDJSmZyWZHEIpfRcRz4vo90Oo2RkRFhhSkCkU6nRSOPllwuJ+LGVFshZ/KinnL0dL7gWPspZMdxhItBVtdxHMzNzWFsbAzvvPMOxsbGhP9FOx7uvxXFBUJWVz6wbsakO3lsR9Hq4sloSvM5CJQLffso1yJKpCttn6Dr6Ps+rEa9qVAsCAKUy2Vs3bpVNNxM0xQJj0wmg2w2KxpztFCKOp1OQ9d1ETMOjz4U/tszIYffaiVkRVGEeGu1GizLalqWlpYwPz+PsbExnDx5EvPz86KxKG8j0vqEikZUfeUGYTf7DbY6BzJxTvYF1jZiPVGN3bCQW8X2V9qnVucjKtyVy+UwMjKCwcFBUcFGApbrJ2TLLAubQmzkTlCoLdytKXwz903I8vtyeSd1f2k0GmIJi5kae5ZlYX5+HpZlwXEccQNQCEh2NSjTJC/dImp9ka5NB9GOqHWHKwDlxk7c9bZadxxka0hPQNlS0mKapqhSM01TNNhJmHKqmQRNFppEnk6nm9LPrRp2vWjLrDisLEEnUT4p9Je6wYS/Fx6zQNd14YfZti2K9SkuLQs5PGZG1EXsZPyDqHV16ja0Wv9K6w4T98J2IgA5kxqO19L1ISFTo0yuJaZSTBIqiZv8YBIvtYXkrF3UfveqQR5byITcWAkLVXbc5aC3YRiiYUjVVNSYcBxHiCssZFl0FB6S6bTeOY5Iw1azU2GHb7aoxl6cdXe6/bBoCbkumK4RvSaXgjJxsrDpPXqdTqcjU85yQ66XlpjoSMjyHR4EgbjoYStNwW/q60VJEXJLgv+WCUYJWI41A51Z3yiiLHI3fLS1rCeOSDtN58uZPLk3c7i/HLkTdL3k3hyysOm9VCoFRVGafheOTMjb7jWrFjLwkZijxoWTHXy6S0m4sl8dDsGRwKIqsYDW2caV6CSy0ClrsZqdrHs1LknYR5UFLaeNKd5Lvi5ZarnYJ9yptJWQW+1733zklTZEn1M6U/a96KB0XRfjxMkNxLCA4zbuuvVoj0snFrCX24qz7ijr1+rRLgtPdgmixqEIdxil78gWtx/uQzs6sshE2N+ThUzxSBrMLizcsBUG2rfMoy5kHAHEuQGi1t1J/Ue/LXIc/5sae7LY5MxeeIwJ2eWQRR31HhmxKB+837RNiMi0C8nJjbWwZaX3ZPGGG3JRQuqWH9tLcXVre908jlZx5LC1buVuyG6j/J2wnx1+P+5xrOZ7q2FNFhloDqy3Cm2FfV85uiH/pt0BdvrYvth9ZDpvsuDCg6LIn8vRBpnw6Jrh3643sYXczomXT1Cr78j/x7G2m5FuRT/6TdR1C7tWrWolwqzX8f5/RldL02WhKT8AAAAASUVORK5CYII=;" vertex="1" parent="1">
          <mxGeometry x="60" y="233.75" width="35.09" height="61.5" as="geometry" />
        </mxCell>
        <mxCell id="MfWSDH6TcIE8ZmdSL28M-26" value="" style="line;strokeWidth=2;html=1;" vertex="1" parent="1">
          <mxGeometry x="95.09" y="270" width="160" height="10" as="geometry" />
        </mxCell>
        <mxCell id="MfWSDH6TcIE8ZmdSL28M-27" value="5G UE" style="text;html=1;strokeColor=none;fillColor=none;align=center;verticalAlign=middle;whiteSpace=wrap;rounded=0;" vertex="1" parent="1">
          <mxGeometry x="47.54000000000002" y="310" width="60" height="30" as="geometry" />
        </mxCell>
      </root>
    </mxGraphModel>
  </diagram>
</mxfile>
